# xmcd
#
# Track frame offsets:
#	150
#	14184
#	29195
#	45248
#	62540
#	80518
#	97177
#	116362
#	133622
#	151008
#	166729
#	187574
#
# Disc length: 2690 seconds
#
# Revision: 0
# Processed by: cddbd v1.5.2PL0 Copyright (c) Steve Scherf et al.
# Submitted via: dBpowerAMP V4.0
#
DISCID=8e0a800c
DTITLE=Shania Twain - Wild and Wicked
DYEAR=1900
DGENRE=
TTITLE0=Bite my lip
TTITLE1=Wild and Wicked
TTITLE2=Send it with love
TTITLE3=Once over
TTITLE4=Hate to love
TTITLE5=Luv eyes
TTITLE6=I lost my hearth when i found you
TTITLE7=The rythm make me do it
TTITLE8=Two hearts one love
TTITLE9=Half breed
TTITLE10=For the love of him (Dance mix)
TTITLE11=For the love of him
EXTD=
EXTT0=
EXTT1=
EXTT2=
EXTT3=
EXTT4=
EXTT5=
EXTT6=
EXTT7=
EXTT8=
EXTT9=
EXTT10=
EXTT11=
PLAYORDER=
